# xmcd CD database file
#
# Track frame offsets:
#	150
#	16850
#	31247
#	47012
#	62996
#	85074
#	103361
#	116485
#	134085
#	157889
#	187977
#	209777
#	229252
#	244758
#
# Disc length: 3838 seconds
#
# Revision: 0
# Processed by: cddbd v1.5.1PL0 Copyright (c) Steve Scherf et al.
# Submitted via: CDex 1.51
#
DISCID=c20efc0e
DTITLE=Bluespower - Tres (Live)
DYEAR=2000
DGENRE=Blues
TTITLE0=Lots Of Fun
TTITLE1=That's What You Do To Me
TTITLE2=Valet Parkin' Guy
TTITLE3=I'm Ready
TTITLE4=Think
TTITLE5=Power Of The Blues
TTITLE6=Automobile
TTITLE7=Got My Mojo Workin'
TTITLE8=Jesus Left Chicago
TTITLE9=The Thrill Is Gone
TTITLE10=Cash On Delivery
TTITLE11=Satelite
TTITLE12=When, When, When
TTITLE13=I'm A Hog For You
EXTD=YEAR: 2000
EXTT0=
EXTT1=
EXTT2=
EXTT3=
EXTT4=
EXTT5=
EXTT6=
EXTT7=
EXTT8=
EXTT9=
EXTT10=
EXTT11=
EXTT12=
EXTT13=
PLAYORDER=
